<?xml version="1.0" standalone="no"?>
<!DOCTYPE svg PUBLIC "-//W3C//DTD SVG 20010904//EN"
 "http://www.w3.org/TR/2001/REC-SVG-20010904/DTD/svg10.dtd">
<svg version="1.0" xmlns="http://www.w3.org/2000/svg"
 width="1024.000000pt" height="1024.000000pt" viewBox="0 0 1024.000000 1024.000000"
 preserveAspectRatio="xMidYMid meet">

<g transform="translate(0.000000,1024.000000) scale(0.100000,-0.100000)"
fill="#000000" stroke="none">
<path d="M843 10225 c-423 -77 -754 -410 -828 -834 -23 -126 -23 -8416 0
-8542 74 -427 407 -760 834 -834 126 -23 8416 -23 8542 0 427 74 760 407 834
834 23 126 23 8416 0 8542 -74 427 -407 760 -834 834 -73 13 -633 15 -4280 14
-3397 -1 -4210 -3 -4268 -14z m8527 -543 c84 -30 147 -71 202 -130 56 -60 81
-101 110 -182 l23 -65 0 -4185 0 -4185 -23 -65 c-56 -154 -158 -257 -312 -312
l-65 -23 -4180 0 c-4021 0 -4182 1 -4240 18 -155 48 -270 159 -327 317 l-23
65 0 4185 0 4185 23 65 c29 79 54 121 107 179 73 80 170 132 278 150 29 5
1903 8 4207 7 l4155 -1 65 -23z"/>
<path d="M7025 9214 c-166 -25 -297 -65 -435 -134 -345 -173 -593 -499 -677
-893 -25 -114 -25 -380 0 -494 111 -518 492 -899 1010 -1010 114 -25 380 -25
494 0 518 111 899 492 1010 1010 25 116 25 380 -1 497 -112 514 -489 893
-1001 1006 -68 15 -339 27 -400 18z"/>
<path d="M2925 7174 c-319 -49 -564 -172 -775 -390 -171 -176 -283 -388 -336
-634 -26 -119 -26 -391 0 -510 57 -261 181 -485 370 -668 179 -173 389 -285
636 -338 119 -26 391 -26 510 0 510 111 895 496 1006 1006 26 119 26 391 0
510 -109 503 -486 886 -986 1001 -83 20 -353 34 -425 23z"/>
<path d="M6858 6380 c-218 -48 -369 -115 -623 -277 -94 -59 -707 -443 -1363
-853 -1036 -647 -1189 -746 -1170 -754 382 -153 663 -379 877 -706 35 -52 64
-96 65 -98 2 -1 223 81 492 181 l489 184 3 -1389 2 -1388 1540 0 1540 0 0
1848 c0 1279 -3 1875 -11 1937 -40 330 -200 654 -440 894 -196 197 -430 330
-716 407 -92 25 -114 27 -348 30 -218 3 -261 1 -337 -16z"/>
<path d="M2766 4330 c-323 -69 -577 -209 -801 -441 -193 -200 -320 -425 -385
-682 -48 -191 -50 -236 -50 -1109 l0 -818 1540 0 1540 0 0 818 c0 530 -4 849
-11 907 -43 350 -201 668 -456 915 -204 199 -419 321 -691 393 -113 29 -126
31 -357 33 -207 3 -252 1 -329 -16z"/>
</g>
</svg>
