<?xml version="1.0" standalone="no"?>
<!DOCTYPE svg PUBLIC "-//W3C//DTD SVG 20010904//EN"
 "http://www.w3.org/TR/2001/REC-SVG-20010904/DTD/svg10.dtd">
<svg version="1.0" xmlns="http://www.w3.org/2000/svg"
 width="1024.000000pt" height="1024.000000pt" viewBox="0 0 1024.000000 1024.000000"
 preserveAspectRatio="xMidYMid meet">

<g transform="translate(0.000000,1024.000000) scale(0.100000,-0.100000)"
fill="#000000" stroke="none">
<path d="M843 10225 c-423 -77 -754 -410 -828 -834 -23 -126 -23 -8416 0
-8542 74 -426 408 -760 832 -834 129 -22 8416 -23 8544 0 427 74 760 407 834
834 23 126 23 8416 0 8542 -74 427 -407 760 -834 834 -73 13 -633 15 -4280 14
-3397 -1 -4210 -3 -4268 -14z m8517 -538 c154 -52 266 -162 322 -317 l23 -65
0 -4185 0 -4185 -23 -65 c-57 -158 -172 -269 -327 -317 -58 -17 -219 -18
-4235 -18 -4016 0 -4177 1 -4235 18 -155 48 -270 159 -327 317 l-23 65 0 4185
0 4185 23 65 c67 185 216 307 407 333 17 2 1900 4 4185 3 4003 -1 4157 -2
4210 -19z"/>
<path d="M2660 8965 c-480 -103 -747 -609 -559 -1062 117 -281 406 -473 714
-473 486 0 857 453 759 928 -86 419 -502 694 -914 607z"/>
<path d="M7270 8965 c-480 -103 -747 -609 -559 -1062 187 -449 760 -614 1156
-333 303 214 413 595 271 937 -138 334 -516 533 -868 458z"/>
<path d="M1923 7436 c-123 -30 -254 -127 -321 -239 -36 -59 -540 -1553 -567
-1680 -41 -189 6 -349 139 -483 77 -77 159 -123 254 -143 34 -7 202 -11 462
-11 l410 0 0 38 c0 62 28 161 66 233 66 126 211 232 353 259 33 6 311 10 719
10 l664 0 -7 48 c-4 26 -15 71 -25 100 -56 160 -212 296 -378 331 -35 7 -237
11 -592 11 l-540 0 0 539 c0 318 -4 560 -10 592 -34 183 -210 359 -398 398
-68 14 -163 13 -229 -3z"/>
<path d="M8073 7436 c-182 -44 -350 -217 -383 -395 -6 -32 -10 -274 -10 -592
l0 -539 -540 0 c-355 0 -557 -4 -592 -11 -166 -35 -322 -171 -378 -331 -10
-29 -21 -74 -25 -100 l-7 -48 664 0 c408 0 686 -4 719 -10 142 -27 287 -133
353 -259 38 -72 66 -171 66 -233 l0 -38 410 0 c260 0 428 4 462 11 95 20 177
66 254 143 133 134 180 294 139 483 -27 127 -531 1621 -567 1680 -69 116 -208
215 -336 242 -68 14 -163 13 -229 -3z"/>
<path d="M2750 5151 c-45 -14 -84 -39 -116 -73 -54 -57 -69 -95 -69 -178 0
-54 6 -85 19 -110 25 -49 74 -98 121 -123 l40 -22 928 -3 927 -2 0 -1675 0
-1675 520 0 520 0 0 1675 0 1675 928 2 927 3 40 22 c47 25 96 74 121 123 26
49 26 171 0 220 -25 49 -74 98 -121 123 l-40 22 -2360 2 c-1298 1 -2371 -2
-2385 -6z"/>
<path d="M1456 4364 c-116 -21 -198 -64 -282 -148 -129 -129 -179 -294 -143
-468 39 -189 208 -358 397 -397 35 -7 262 -11 682 -11 347 0 630 -2 630 -4 0
-2 -151 -307 -335 -679 -184 -372 -342 -702 -350 -734 -83 -317 173 -643 505
-643 200 0 391 123 470 304 53 121 955 1938 990 1995 68 110 94 251 71 373
-38 194 -196 357 -396 409 -79 20 -2129 23 -2239 3z"/>
<path d="M6601 4368 c-135 -19 -234 -70 -325 -169 -156 -168 -179 -421 -57
-619 35 -57 938 -1876 991 -1996 79 -181 270 -304 470 -304 332 0 588 326 505
643 -8 32 -166 362 -350 734 -184 372 -335 677 -335 679 0 2 283 4 630 4 420
0 647 4 682 11 189 39 358 208 397 397 23 112 10 223 -42 332 -41 88 -149 196
-238 238 -130 62 -135 62 -1253 61 -556 -1 -1040 -6 -1075 -11z"/>
</g>
</svg>
