<?xml version="1.0" standalone="no"?>
<!DOCTYPE svg PUBLIC "-//W3C//DTD SVG 20010904//EN"
 "http://www.w3.org/TR/2001/REC-SVG-20010904/DTD/svg10.dtd">
<svg version="1.0" xmlns="http://www.w3.org/2000/svg"
 width="1024.000000pt" height="1024.000000pt" viewBox="0 0 1024.000000 1024.000000"
 preserveAspectRatio="xMidYMid meet">

<g transform="translate(0.000000,1024.000000) scale(0.100000,-0.100000)"
fill="#000000" stroke="none">
<path d="M854 10225 c-221 -40 -401 -133 -554 -285 -129 -130 -217 -283 -268
-469 l-27 -96 0 -4255 0 -4255 27 -96 c102 -370 367 -635 737 -737 l96 -27
4255 0 4255 0 100 27 c365 101 632 368 733 737 l27 96 0 4255 0 4255 -27 96
c-102 370 -367 635 -737 737 l-96 27 -4225 2 c-3403 1 -4239 -1 -4296 -12z
m8520 -543 c152 -58 261 -169 312 -322 18 -53 19 -184 19 -4240 0 -4056 -1
-4187 -19 -4240 -51 -153 -160 -264 -312 -322 l-59 -23 -4195 0 -4195 0 -59
23 c-152 58 -261 169 -312 322 -18 53 -19 184 -19 4240 0 4056 1 4187 19 4240
61 181 205 307 386 340 25 4 1919 7 4210 6 l4165 -1 59 -23z"/>
<path d="M4825 9210 c-838 -66 -1620 -374 -2275 -896 -173 -138 -485 -451
-624 -624 -190 -238 -388 -553 -509 -810 -196 -417 -313 -830 -374 -1320 -23
-189 -23 -691 0 -880 73 -584 231 -1078 496 -1555 98 -176 257 -411 387 -575
138 -173 451 -486 624 -624 619 -493 1318 -783 2130 -882 204 -25 676 -25 880
0 695 85 1282 299 1840 671 229 153 402 296 616 509 213 214 356 387 509 616
372 558 584 1138 672 1840 23 189 23 691 0 880 -73 584 -230 1078 -496 1555
-98 176 -257 411 -387 575 -138 173 -451 486 -624 624 -617 492 -1324 786
-2125 881 -153 19 -583 27 -740 15z m685 -520 c830 -101 1542 -440 2123 -1009
598 -585 954 -1321 1059 -2186 16 -136 16 -600 0 -750 -133 -1201 -839 -2242
-1903 -2804 -388 -205 -814 -334 -1294 -393 -130 -16 -620 -16 -750 0 -480 59
-906 188 -1294 393 -1064 562 -1770 1603 -1903 2804 -17 156 -17 594 0 750
133 1201 839 2242 1903 2804 392 207 863 349 1295 391 60 5 125 12 144 14 63
7 533 -3 620 -14z"/>
<path d="M5120 7940 l0 -260 -130 0 -130 0 0 255 0 255 -27 -5 c-16 -2 -68 -9
-118 -15 -535 -65 -1094 -307 -1539 -666 -593 -477 -1015 -1233 -1106 -1979
-6 -49 -13 -102 -15 -117 l-4 -28 254 0 255 0 0 -260 0 -260 -255 0 -255 0 5
-27 c2 -16 9 -68 15 -118 63 -529 308 -1094 664 -1537 480 -595 1234 -1017
1981 -1108 50 -6 102 -13 118 -15 l27 -5 0 255 0 255 260 0 260 0 0 -255 0
-255 28 5 c15 2 68 9 117 15 603 74 1217 363 1691 797 l79 73 -1087 1087
-1088 1088 0 1283 0 1282 130 0 130 0 0 254 0 253 -67 6 c-38 4 -96 7 -130 7
l-63 0 0 -260z"/>
<path d="M7680 5120 l0 -260 254 0 253 0 6 68 c9 86 9 298 0 385 l-6 67 -253
0 -254 0 0 -260z"/>
</g>
</svg>
