<?xml version="1.0" standalone="no"?>
<!DOCTYPE svg PUBLIC "-//W3C//DTD SVG 20010904//EN"
 "http://www.w3.org/TR/2001/REC-SVG-20010904/DTD/svg10.dtd">
<svg version="1.0" xmlns="http://www.w3.org/2000/svg"
 width="512.000000pt" height="512.000000pt" viewBox="0 0 512.000000 512.000000"
 preserveAspectRatio="xMidYMid meet">
<metadata>
Created by potrace 1.14, written by Peter Selinger 2001-2017
</metadata>
<g transform="translate(0.000000,512.000000) scale(0.100000,-0.100000)"
fill="#000000" stroke="none">
<path d="M2475 4918 c-80 -11 -185 -43 -243 -75 -26 -14 -148 -84 -272 -156
-124 -72 -241 -139 -260 -150 -19 -10 -150 -86 -290 -167 -140 -81 -329 -190
-420 -243 -91 -52 -181 -104 -200 -116 -19 -11 -50 -28 -68 -37 -33 -17 -43
-27 -125 -121 -93 -107 -144 -202 -180 -334 -22 -84 -22 -84 -22 -994 l0 -910
27 -80 c37 -107 89 -194 168 -278 78 -83 103 -101 334 -235 243 -141 563 -325
606 -349 19 -11 186 -107 370 -214 184 -106 363 -203 398 -216 197 -72 416
-59 605 36 79 39 997 570 1401 810 220 130 331 265 398 483 22 73 22 75 26
943 4 940 3 961 -49 1095 -52 137 -170 286 -280 356 -73 46 -1482 870 -1526
892 -103 53 -269 78 -398 60z"/>
</g>
</svg>
